<!DOCTYPE svg PUBLIC "-//W3C//DTD SVG 1.1//EN" "http://www.w3.org/Graphics/SVG/1.1/DTD/svg11.dtd">
<!-- Uploaded to: SVG Repo, www.svgrepo.com, Transformed by: SVG Repo Mixer Tools -->
<svg fill="#ffffff" height="800px" width="800px" version="1.1" id="Layer_1" xmlns="http://www.w3.org/2000/svg" xmlns:xlink="http://www.w3.org/1999/xlink" viewBox="0 0 512 512" xml:space="preserve" stroke="#ffffff">
<g id="SVGRepo_bgCarrier" stroke-width="0"/>
<g id="SVGRepo_tracerCarrier" stroke-linecap="round" stroke-linejoin="round"/>
<g id="SVGRepo_iconCarrier"> <g> <g> <g> <path d="M40.309,484.174h62.57V512h33.391v-27.826h103.034V0H40.309V484.174z M178.087,209.586 c10.592,0,19.179,8.586,19.179,19.179s-8.587,19.179-19.179,19.179s-19.179-8.586-19.179-19.179S167.495,209.586,178.087,209.586 z"/> <path d="M272.696,0v484.174H375.73V512h33.391v-27.826h62.57V0H272.696z M333.913,247.944c-10.592,0-19.179-8.586-19.179-19.179 s8.587-19.179,19.179-19.179c10.592,0,19.179,8.586,19.179,19.179S344.505,247.944,333.913,247.944z"/> </g> </g> </g> </g>
</svg>